<?xml version="1.0" encoding="utf-8"?>
<!-- Generator: Adobe Illustrator 16.0.0, SVG Export Plug-In . SVG Version: 6.00 Build 0)  -->
<!DOCTYPE svg PUBLIC "-//W3C//DTD SVG 1.1//EN" "http://www.w3.org/Graphics/SVG/1.1/DTD/svg11.dtd">
<svg version="1.1" id="Layer_1" xmlns="http://www.w3.org/2000/svg" xmlns:xlink="http://www.w3.org/1999/xlink" x="0px" y="0px"
	 width="612px" height="792px" viewBox="0 0 612 792" enable-background="new 0 0 612 792" xml:space="preserve">
<path d="M89.148,388.248c0-4.896,1.632-9.18,5.1-12.648c3.468-3.264,7.752-4.896,12.24-4.896h41.616c4.692,0,8.568,1.632,11.832,5.1
	c3.06,3.468,4.692,7.548,4.692,12.444s-1.428,8.977-4.488,12.443c-3.06,3.469-7.14,5.101-11.832,5.101h-41.616
	c-4.692,0-8.772-1.632-12.24-5.101C90.984,397.225,89.148,393.144,89.148,388.248z M147.492,529.62
	c0-4.692,1.632-8.772,4.692-12.444l29.988-29.172c3.06-3.264,7.14-4.692,12.036-4.692s8.976,1.633,12.24,4.692
	c3.264,3.061,4.896,6.937,4.896,11.628c0,4.896-1.632,9.384-4.896,13.056l-28.968,28.969c-8.364,6.527-16.728,6.527-25.092,0
	C149.124,538.392,147.492,534.312,147.492,529.62z M147.492,247.284c0-4.692,1.632-8.772,4.692-12.444
	c4.08-3.468,8.364-5.1,13.056-5.1c4.488,0,8.568,1.632,12.036,4.896l29.172,29.988c3.264,3.06,4.896,7.14,4.896,12.036
	s-1.632,8.976-4.896,12.24c-3.264,3.264-7.344,4.896-12.24,4.896s-8.976-1.632-12.036-4.896l-29.784-29.172
	C149.124,256.464,147.492,252.18,147.492,247.284z M199.512,388.248c0-18.972,4.692-36.72,14.28-53.04s22.44-29.376,38.964-38.964
	s34.068-14.28,53.04-14.28c14.28,0,27.948,2.856,41.208,8.568c13.056,5.712,24.48,13.26,33.864,22.848
	c9.588,9.588,17.136,20.808,22.644,33.864c5.508,13.056,8.364,26.928,8.364,41.208c0,19.176-4.692,36.924-14.28,53.244
	c-9.588,16.319-22.439,29.172-38.76,38.76s-34.068,14.28-53.244,14.28s-36.924-4.692-53.244-14.28
	c-16.32-9.588-29.172-22.44-38.76-38.76C204.408,425.172,199.512,407.424,199.512,388.248z M234.192,388.248
	c0,19.992,6.936,36.924,21.012,51c13.872,14.076,30.804,21.216,50.796,21.216s36.924-7.14,51-21.216s21.216-31.008,21.216-51
	c0-19.584-7.14-36.312-21.216-50.388c-14.076-13.872-31.008-20.808-51-20.808c-19.788,0-36.72,6.936-50.592,20.808
	C241.128,351.936,234.192,368.664,234.192,388.248z M288.456,546.96c0-4.896,1.632-8.976,5.1-12.24
	c3.468-3.264,7.547-4.896,12.24-4.896c4.896,0,9.18,1.632,12.444,4.896c3.264,3.265,4.896,7.345,4.896,12.24v40.596
	c0,4.896-1.632,9.181-5.1,12.648s-7.548,5.1-12.24,5.1s-8.976-1.632-12.24-5.1c-3.468-3.468-5.1-7.752-5.1-12.648V546.96z
	 M288.456,230.76v-41.616c0-4.692,1.632-8.772,5.1-12.24c3.468-3.468,7.547-5.304,12.444-5.304s8.772,1.632,12.24,5.1
	c3.468,3.468,5.1,7.548,5.1,12.24v41.82c0,4.692-1.632,8.568-5.1,11.832c-3.468,3.264-7.548,4.692-12.24,4.692
	s-8.976-1.632-12.24-4.692C290.496,239.532,288.456,235.452,288.456,230.76z M401.064,499.632c0-4.691,1.632-8.567,4.691-11.424
	c3.061-3.264,6.937-4.692,11.424-4.692c4.896,0,8.977,1.633,12.24,4.692l29.784,29.172c3.264,3.468,4.896,7.752,4.896,12.444
	c0,4.691-1.632,8.771-4.896,12.036c-8.16,6.323-16.32,6.323-24.48,0l-28.968-28.969C402.696,509.22,401.064,504.936,401.064,499.632
	z M401.064,276.864c0-5.1,1.632-9.18,4.691-12.036l28.968-29.988c3.469-3.264,7.549-4.896,12.036-4.896
	c4.896,0,8.977,1.632,12.24,5.1c3.468,3.468,5.1,7.548,5.1,12.24c0,5.1-1.632,9.384-4.896,12.648l-29.784,29.172
	c-3.672,3.264-7.752,4.896-12.24,4.896c-4.691,0-8.363-1.632-11.424-4.896C402.696,285.84,401.064,281.76,401.064,276.864z
	 M447.168,388.248c0-4.896,1.632-8.976,4.896-12.648c3.264-3.264,7.14-4.896,11.628-4.896H504.9c4.691,0,8.771,1.836,12.239,5.304
	c3.469,3.468,5.305,7.548,5.305,12.24s-1.836,8.771-5.305,12.24c-3.468,3.468-7.548,5.1-12.239,5.1h-41.208
	c-4.692,0-8.772-1.632-11.832-5.1C448.8,397.02,447.168,393.144,447.168,388.248z"/>
</svg>
