<?xml version="1.0" encoding="utf-8"?>
<!-- Generator: Adobe Illustrator 16.0.0, SVG Export Plug-In . SVG Version: 6.00 Build 0)  -->
<!DOCTYPE svg PUBLIC "-//W3C//DTD SVG 1.1//EN" "http://www.w3.org/Graphics/SVG/1.1/DTD/svg11.dtd">
<svg version="1.1" id="Layer_1" xmlns="http://www.w3.org/2000/svg" xmlns:xlink="http://www.w3.org/1999/xlink" x="0px" y="0px"
	 width="612px" height="792px" viewBox="0 0 612 792" enable-background="new 0 0 612 792" xml:space="preserve">
<path d="M161.364,385.392c0-19.584,3.876-38.148,11.424-56.1s17.952-33.252,30.804-46.104
	c12.852-12.852,28.356-23.256,46.308-31.008c17.952-7.752,36.72-11.628,56.1-11.628h23.256c3.264,0.816,4.692,2.856,4.692,5.712
	l1.02,17.952c0.816,25.908,9.996,47.94,27.948,66.096s39.576,27.948,65.076,28.968l16.728,1.428c3.265,0,4.896,1.632,4.896,4.692
	v19.992c0.204,26.112-6.12,50.388-18.973,72.624c-12.852,22.236-30.191,39.78-52.428,52.836
	c-22.032,12.853-46.308,19.381-72.42,19.381c-19.788,0-38.76-3.877-56.712-11.425s-33.252-17.951-46.104-30.804
	c-12.852-12.852-23.052-28.355-30.6-46.104C165.24,423.948,161.364,405.18,161.364,385.392z M198.696,385.392
	c0,15.504,3.06,30.192,9.18,44.064c6.12,13.668,14.28,25.296,24.276,34.68s21.42,16.729,34.476,22.032
	c12.852,5.508,26.112,8.16,39.576,8.16c11.832,0,23.868-2.244,35.904-6.937c12.035-4.691,23.256-11.22,33.659-19.584
	c10.404-8.363,19.177-18.972,26.725-32.027c7.548-13.057,12.24-27.132,14.483-42.636c-33.252-6.936-59.976-21.216-79.968-42.84
	s-31.62-46.92-34.68-76.296c-19.584,1.224-37.128,7.14-53.244,17.952c-15.912,10.812-28.356,24.48-37.128,41.208
	S198.696,367.236,198.696,385.392z"/>
</svg>
