<?xml version="1.0" encoding="utf-8"?>
<!-- Generator: Adobe Illustrator 16.0.0, SVG Export Plug-In . SVG Version: 6.00 Build 0)  -->
<!DOCTYPE svg PUBLIC "-//W3C//DTD SVG 1.1//EN" "http://www.w3.org/Graphics/SVG/1.1/DTD/svg11.dtd">
<svg version="1.1" id="Layer_1" xmlns="http://www.w3.org/2000/svg" xmlns:xlink="http://www.w3.org/1999/xlink" x="0px" y="0px"
	 width="612px" height="792px" viewBox="0 0 612 792" enable-background="new 0 0 612 792" xml:space="preserve">
<path d="M31.824,434.76c0,18.36,4.488,35.292,13.464,50.796s21.216,27.744,36.72,36.721c15.504,8.976,32.232,13.464,50.388,13.464
	h220.932c18.156,0,35.088-4.488,50.592-13.464c15.504-8.977,27.948-21.217,36.924-36.721c8.977-15.504,13.668-32.436,13.668-50.796
	c0-13.464-2.855-27.132-8.567-40.8c15.504-18.768,23.256-41.412,23.256-67.32c0-14.484-2.856-28.356-8.364-41.616
	c-5.508-13.26-13.26-24.48-22.848-34.068s-20.809-17.34-34.068-22.848c-13.26-5.712-27.132-8.364-41.616-8.364
	c-30.191,0-56.508,11.832-79.152,35.496c-15.708-8.976-34.068-13.464-55.08-13.464c-28.764,0-54.06,8.976-76.092,26.724
	s-36.312,40.596-42.432,68.34c-22.848,5.304-41.412,16.932-55.896,35.292C39.168,390.492,31.824,411.3,31.824,434.76z
	 M66.708,434.76c0-17.136,5.712-31.824,17.136-44.268c11.424-12.444,25.704-19.584,42.84-21.624l10.2-0.612
	c2.448,0,3.876-1.224,3.876-3.672l1.428-11.016c2.856-22.032,12.444-40.596,28.764-55.284c16.32-14.892,35.496-22.236,57.324-22.236
	c22.44,0,42.024,7.548,58.548,22.44c16.728,14.892,25.908,33.252,27.948,55.284l1.428,11.832c0.408,2.244,1.836,3.468,4.284,3.468
	h32.844c17.952,0,33.456,6.528,46.512,19.584c13.057,13.056,19.584,28.355,19.584,46.308c0,18.564-6.527,34.272-19.38,47.328
	c-12.852,13.056-28.56,19.584-46.512,19.584H132.396c-17.952,0-33.252-6.528-46.308-19.788
	C73.236,468.828,66.708,453.12,66.708,434.76z M203.388,184.452c0,4.896,1.632,9.18,4.896,12.852l13.464,13.056
	c5.1,3.876,9.384,5.508,13.056,5.1c4.284,0,7.956-1.836,11.22-5.304c3.264-3.468,4.896-7.752,4.896-12.648
	s-1.836-8.976-5.304-12.036l-12.036-13.464c-3.672-3.264-7.752-4.896-12.444-4.896c-4.896,0-9.18,1.632-12.648,5.1
	C205.02,175.476,203.388,179.556,203.388,184.452z M312.324,274.824c14.076-13.668,30.804-20.4,49.979-20.4
	c20.196,0,37.332,6.936,51.408,21.012c14.076,14.076,21.216,31.008,21.216,51.204c0,12.648-3.468,25.296-10.403,37.536
	c-19.788-19.584-43.452-29.376-71.196-29.376H346.8C341.7,312.564,330.276,292.572,312.324,274.824z M345.576,167.112
	c0,5.304,1.632,9.384,4.691,12.648c3.061,3.264,7.141,4.692,12.036,4.692c5.305,0,9.384-1.632,12.648-4.692
	c3.264-3.264,4.691-7.344,4.691-12.648v-41.82c0-4.896-1.632-8.772-4.896-12.036c-3.264-3.264-7.344-4.692-12.444-4.692
	c-4.896,0-8.771,1.632-12.036,4.692c-3.264,3.06-4.691,7.14-4.691,12.036V167.112z M458.184,213.828
	c0,5.304,1.429,9.384,4.488,12.648c4.284,3.264,8.568,4.896,12.648,4.896c3.672,0,7.752-1.632,12.036-4.896l29.172-29.172
	c3.264-3.672,4.896-7.956,4.896-13.056c0-4.896-1.632-8.976-4.896-12.24c-3.265-3.264-7.345-4.896-12.036-4.896
	c-4.896,0-8.772,1.632-11.832,4.896l-29.988,29.172C459.612,205.056,458.184,209.136,458.184,213.828z M474.3,455.364
	c0,4.896,1.632,9.18,5.101,12.852l13.26,12.853c3.06,3.264,6.936,4.896,11.832,4.896c4.896,0,8.976-1.632,12.24-5.1
	c3.264-3.469,4.896-7.548,4.896-12.648c0-4.488-1.632-8.568-4.896-11.832l-13.261-13.26c-3.264-3.264-7.14-4.896-11.628-4.896
	c-4.896,0-8.976,1.633-12.24,4.896C476.136,446.388,474.3,450.468,474.3,455.364z M504.288,326.64c0,4.692,1.836,8.568,5.304,11.832
	c3.264,3.264,7.548,4.896,12.444,4.896h41.616c4.691,0,8.567-1.632,11.832-4.692c3.264-3.06,4.691-7.14,4.691-12.036
	s-1.632-8.976-4.691-12.24c-3.061-3.264-7.141-5.1-11.832-5.1h-41.616c-4.896,0-8.977,1.632-12.444,5.1
	C505.92,317.868,504.288,321.948,504.288,326.64z"/>
</svg>
