<?xml version="1.0" encoding="utf-8"?>
<!-- Generator: Adobe Illustrator 16.0.0, SVG Export Plug-In . SVG Version: 6.00 Build 0)  -->
<!DOCTYPE svg PUBLIC "-//W3C//DTD SVG 1.1//EN" "http://www.w3.org/Graphics/SVG/1.1/DTD/svg11.dtd">
<svg version="1.1" id="Layer_1" xmlns="http://www.w3.org/2000/svg" xmlns:xlink="http://www.w3.org/1999/xlink" x="0px" y="0px"
	 width="612px" height="792px" viewBox="0 0 612 792" enable-background="new 0 0 612 792" xml:space="preserve">
<path d="M84.456,434.76c0-23.664,7.14-44.472,21.624-62.832c14.484-18.36,33.048-29.988,55.896-35.088
	c4.692-21.012,14.28-39.372,28.56-55.08c14.28-15.708,31.62-26.928,51.612-33.66c12.648-4.284,25.704-6.528,39.372-6.528
	c16.524,0,32.64,3.264,47.94,9.792c5.712-9.588,12.444-17.952,20.196-24.888s15.708-12.444,23.868-16.116
	c8.159-3.672,16.319-6.528,24.071-8.364s15.504-2.652,22.849-2.652c7.752,0,16.115,1.021,25.092,3.264l16.728,5.1
	c2.856,1.224,3.672,2.652,2.856,4.488l-2.856,12.24c-1.428,6.324-2.04,12.24-2.04,17.544c0,6.324,1.021,12.852,3.061,19.38
	c2.04,6.528,4.896,12.852,8.976,19.176c3.876,6.324,9.384,11.832,16.32,16.932c6.936,5.1,14.688,8.976,23.46,11.628l12.647,4.488
	c2.04,0.612,3.061,1.632,3.061,3.264c0,0.408-0.204,0.816-0.408,1.428l-3.672,13.668c-5.508,22.032-15.912,39.372-30.6,52.428
	c8.159,14.28,12.647,29.58,13.26,45.696c0.204,1.02,0.204,2.447,0.204,4.691c0,18.156-4.488,35.088-13.668,50.592
	c-8.977,15.504-21.42,27.744-36.721,36.721c-15.504,8.976-32.436,13.668-50.592,13.668H185.028
	c-18.156,0-35.088-4.488-50.592-13.668c-15.504-9.181-27.54-21.42-36.516-36.721C88.944,470.052,84.456,453.12,84.456,434.76z
	 M119.34,434.76c0,18.156,6.528,33.864,19.584,47.124c13.056,13.26,28.356,19.992,46.104,19.992h220.524
	c18.156,0,33.66-6.528,46.513-19.788c12.852-13.26,19.38-28.968,19.38-47.328c0-17.951-6.528-33.252-19.584-46.104
	c-13.057-12.852-28.561-19.38-46.513-19.38h-36.312l-2.04-15.3c-2.04-20.604-10.608-38.352-25.704-52.836
	s-33.048-22.644-53.652-24.48c-0.612,0-1.632,0-3.06-0.204c-1.428-0.204-2.244-0.204-3.06-0.204c-10.404,0-20.808,2.04-31.416,5.916
	v-0.408c-14.892,5.712-27.54,15.096-37.536,27.948c-10.2,12.852-16.32,27.54-18.36,44.268l-1.428,14.688l-13.872,0.612
	c-17.136,2.04-31.416,9.18-42.84,21.624C124.644,403.344,119.34,417.828,119.34,434.76z M359.04,269.316
	c21.624,18.564,35.088,40.188,40.188,64.872h6.528c25.296,0,46.92,7.956,64.668,24.072c6.732-6.324,11.832-13.668,15.504-21.828
	c-18.563-8.772-33.252-22.236-44.063-40.188c-10.608-17.952-16.116-36.924-16.116-56.712v-4.896
	c-1.021-0.204-2.652-0.204-4.896-0.204c-11.832-0.204-23.46,2.652-34.68,8.976C374.952,249.528,365.772,258.096,359.04,269.316z"/>
</svg>
