<?xml version="1.0" encoding="utf-8"?>
<!-- Generator: Adobe Illustrator 16.0.0, SVG Export Plug-In . SVG Version: 6.00 Build 0)  -->
<!DOCTYPE svg PUBLIC "-//W3C//DTD SVG 1.1//EN" "http://www.w3.org/Graphics/SVG/1.1/DTD/svg11.dtd">
<svg version="1.1" id="Layer_1" xmlns="http://www.w3.org/2000/svg" xmlns:xlink="http://www.w3.org/1999/xlink" x="0px" y="0px"
	 width="612px" height="792px" viewBox="0 0 612 792" enable-background="new 0 0 612 792" xml:space="preserve">
<path d="M94.044,434.352c0-23.459,7.344-44.268,22.032-62.627c14.688-18.36,33.252-30.192,55.896-35.292
	c6.324-27.948,20.808-50.796,43.044-68.748c22.236-17.952,47.94-26.928,76.704-26.928c28.152,0,53.244,8.772,75.276,26.112
	c22.032,17.34,36.312,39.78,42.84,67.116h6.732c18.359,0,35.292,4.488,50.796,13.26s27.948,21.012,36.924,36.516
	s13.668,32.232,13.668,50.592c0,17.952-4.284,34.681-12.853,49.98c-8.567,15.3-20.399,27.54-35.291,36.72
	c-14.893,9.181-31.416,14.076-49.164,14.688H191.964c-27.336-1.225-50.388-11.628-69.36-31.212
	C103.632,485.148,94.044,461.688,94.044,434.352z M128.928,434.352c0,17.748,6.12,33.049,18.36,46.104
	c12.24,13.056,27.132,19.992,44.676,21.012H420.24c17.544-0.815,32.436-7.956,44.676-21.012
	c12.444-13.056,18.564-28.56,18.564-46.104c0-17.951-6.732-33.252-19.992-46.308c-13.261-13.056-28.969-19.584-47.328-19.584H383.52
	c-2.243,0-3.468-1.224-3.468-3.672l-1.428-11.628c-2.244-22.032-11.832-40.596-28.56-55.488
	c-16.729-14.892-36.108-22.44-58.344-22.44c-22.236,0-41.82,7.548-58.14,22.44c-16.524,14.892-25.908,33.456-27.948,55.488
	L204,364.788c0,2.448-1.428,3.672-4.08,3.672h-10.812c-17.136,2.04-31.416,9.384-42.84,21.828S128.928,417.42,128.928,434.352z"/>
</svg>
