<?xml version="1.0" encoding="utf-8"?>
<!-- Generator: Adobe Illustrator 16.0.0, SVG Export Plug-In . SVG Version: 6.00 Build 0)  -->
<!DOCTYPE svg PUBLIC "-//W3C//DTD SVG 1.1//EN" "http://www.w3.org/Graphics/SVG/1.1/DTD/svg11.dtd">
<svg version="1.1" id="Layer_1" xmlns="http://www.w3.org/2000/svg" xmlns:xlink="http://www.w3.org/1999/xlink" x="0px" y="0px"
	 width="612px" height="792px" viewBox="0 0 612 792" enable-background="new 0 0 612 792" xml:space="preserve">
<path d="M79.356,449.04c0-20.196,6.324-38.353,18.972-54.06c12.648-15.708,28.764-25.908,48.552-30.396
	c5.304-23.868,17.34-43.656,36.312-58.752c18.972-15.3,40.8-22.848,65.688-22.848c24.072,0,45.696,7.344,64.464,22.236
	c18.973,14.892,31.212,33.864,36.721,57.12h5.508c24.071,0,44.472,8.364,61.403,25.296c16.933,16.932,25.5,37.332,25.5,61.2
	c0,24.072-8.567,44.472-25.5,61.404c-16.932,16.932-37.332,25.5-61.403,25.5H166.464c-11.832,0-23.052-2.244-33.66-6.937
	c-10.608-4.691-20.196-10.403-27.948-18.155s-13.872-17.137-18.564-27.744C81.6,472.296,79.356,460.668,79.356,449.04z
	 M108.936,449.04c0,15.504,5.712,28.968,16.728,39.984c11.016,11.016,24.684,16.728,40.596,16.728h189.312
	c15.708,0,29.376-5.508,40.596-16.728c11.22-11.221,16.932-24.48,16.932-39.984s-5.508-28.968-16.932-39.983
	c-11.22-11.017-24.684-16.729-40.596-16.729h-28.356c-2.04,0-3.06-1.02-3.06-3.06l-1.428-9.996
	c-2.04-19.176-10.2-35.292-24.276-47.94s-30.804-18.972-49.98-18.972c-19.176,0-35.904,6.324-50.184,19.176
	c-14.28,12.648-22.236,28.764-24.072,47.736l-1.428,8.568c0,2.04-1.02,3.06-3.264,3.06l-9.18,1.428
	c-14.688,1.224-26.928,7.344-36.924,18.156C114.036,421.296,108.936,434.148,108.936,449.04z M289.476,271.152
	c-2.04,1.836-1.632,3.264,1.428,4.284c8.772,3.876,16.116,7.548,22.032,11.22c2.244,0.612,3.876,0.408,4.488-0.612
	c12.444-11.628,26.725-17.544,43.248-17.544c16.524,0,30.601,5.508,42.84,16.524c12.036,11.016,18.769,24.684,20.196,40.8
	l1.836,13.056h28.968c13.261,0,24.685,4.692,34.272,14.28s14.28,20.808,14.28,33.864c0,12.24-4.284,22.848-12.648,32.028
	c-8.364,9.181-18.768,14.28-31.212,15.708c-2.04,0-3.061,1.021-3.061,3.265v23.052c0,2.244,1.021,3.264,3.061,3.264
	c20.604-1.224,37.944-9.384,52.02-24.275c14.076-14.893,21.216-32.641,21.216-53.041c0-21.624-7.548-39.984-22.848-55.08
	c-15.3-15.3-33.66-22.848-55.08-22.848h-3.06c-5.305-20.4-16.524-37.128-33.66-50.388c-16.932-13.26-36.108-19.788-57.12-19.788
	C332.112,238.716,308.244,249.528,289.476,271.152z"/>
</svg>
