<?xml version="1.0" encoding="utf-8"?>
<!-- Generator: Adobe Illustrator 16.0.0, SVG Export Plug-In . SVG Version: 6.00 Build 0)  -->
<!DOCTYPE svg PUBLIC "-//W3C//DTD SVG 1.1//EN" "http://www.w3.org/Graphics/SVG/1.1/DTD/svg11.dtd">
<svg version="1.1" id="Layer_1" xmlns="http://www.w3.org/2000/svg" xmlns:xlink="http://www.w3.org/1999/xlink" x="0px" y="0px"
	 width="612px" height="792px" viewBox="0 0 612 792" enable-background="new 0 0 612 792" xml:space="preserve">
<path d="M94.656,434.964c0-23.46,7.344-44.268,22.032-62.628s33.252-29.988,55.692-35.292c6.324-27.744,20.808-50.592,43.044-68.544
	c22.236-17.952,47.736-26.724,76.5-26.724c28.152,0,53.04,8.772,75.072,26.112c22.032,17.34,36.312,39.78,42.84,67.116h6.528
	c18.155,0,35.088,4.488,50.592,13.26s27.948,21.012,36.924,36.312c8.976,15.3,13.668,32.232,13.668,50.388
	c0,17.952-4.284,34.477-12.852,49.776c-8.568,15.3-20.4,27.54-35.292,36.72c-14.893,9.18-31.212,14.076-48.96,14.484
	c-2.652,0-4.08-1.225-4.08-3.469v-27.132c0-2.448,1.428-3.672,4.08-3.672c17.34-0.816,32.231-7.752,44.472-20.808
	c12.24-13.057,18.36-28.356,18.36-46.104s-6.732-33.048-19.992-46.104c-13.26-13.056-28.968-19.584-47.124-19.584h-32.844
	c-2.448,0-3.673-1.224-3.673-3.468l-1.632-11.832c-2.244-22.032-11.832-40.596-28.355-55.284
	c-16.729-14.892-35.904-22.236-58.14-22.236c-22.236,0-41.82,7.344-58.14,22.236c-16.524,14.892-25.704,33.252-27.744,55.284
	l-1.428,10.812c0,2.448-1.428,3.876-4.08,3.876l-10.812,0.612c-16.932,2.04-31.212,9.384-42.84,21.828s-17.34,27.131-17.34,44.064
	c0,17.748,6.12,33.048,18.36,46.104c12.24,13.056,27.132,19.991,44.472,20.808c2.244,0,3.468,1.224,3.468,3.672v27.132
	c0,2.244-1.224,3.468-3.468,3.468c-27.336-1.224-50.388-11.628-69.36-31.212S94.656,462.096,94.656,434.964z M203.796,571.44
	c0-0.816,0.204-2.244,0.816-4.08l33.252-117.708c1.224-3.876,3.468-6.937,6.528-8.977s6.324-3.06,9.384-3.06
	c1.428,0,3.06,0.204,4.896,0.611c4.896,0.816,8.568,3.469,11.016,7.549s3.06,8.567,1.632,13.668l-33.252,116.892
	c-2.448,8.772-8.16,13.056-16.728,13.056c-0.816,0-1.428-0.204-2.244-0.407c-1.224-0.408-1.836-0.612-2.04-0.612
	c-4.488-1.224-7.752-3.468-9.996-6.732C204.816,578.172,203.796,574.908,203.796,571.44z M257.244,628.764l49.775-178.907
	c0.816-3.876,2.856-6.937,6.12-8.977c3.265-2.04,6.528-3.06,9.996-3.06c1.836,0,3.672,0.204,5.508,0.611
	c4.488,1.225,7.752,3.876,9.996,7.956s2.652,8.364,1.429,13.057l-49.572,179.111c-0.816,3.469-2.652,6.324-5.916,8.772
	c-3.264,2.448-6.528,3.672-10.404,3.672c-1.836,0-3.672-0.408-5.1-1.02c-4.08-1.021-7.548-3.673-10.608-7.956
	C256.224,638.352,255.816,634.068,257.244,628.764z M341.496,571.848c0-0.815,0.204-2.244,0.816-4.691l33.252-117.708
	c1.224-3.876,3.264-6.937,6.119-8.977c3.061-2.04,6.12-3.06,9.385-3.06c1.632,0,3.468,0.204,5.304,0.612
	c4.284,1.224,7.344,3.264,9.384,6.323c2.04,3.061,3.061,6.324,3.061,9.588c0,0.612-0.204,1.633-0.408,2.856S408,458.832,408,459.24
	l-33.252,116.892c-0.816,3.876-2.652,7.141-5.712,9.384c-3.061,2.244-6.528,3.469-10.404,3.469l-4.896-1.021
	c-4.08-1.224-7.141-3.264-9.385-6.528C342.516,578.376,341.496,575.112,341.496,571.848z"/>
</svg>
