<?xml version="1.0" encoding="utf-8"?>
<!-- Generator: Adobe Illustrator 16.0.0, SVG Export Plug-In . SVG Version: 6.00 Build 0)  -->
<!DOCTYPE svg PUBLIC "-//W3C//DTD SVG 1.1//EN" "http://www.w3.org/Graphics/SVG/1.1/DTD/svg11.dtd">
<svg version="1.1" id="Layer_1" xmlns="http://www.w3.org/2000/svg" xmlns:xlink="http://www.w3.org/1999/xlink" x="0px" y="0px"
	 width="612px" height="792px" viewBox="0 0 612 792" enable-background="new 0 0 612 792" xml:space="preserve">
<path d="M31.824,434.352c0,27.133,9.384,50.389,28.356,69.973c18.972,19.584,42.024,29.784,69.36,31.212
	c2.244,0,3.468-1.224,3.468-3.468v-27.336c0-2.448-1.224-3.673-3.468-3.673c-17.34-0.815-32.028-7.752-44.268-20.808
	c-12.24-13.056-18.156-28.355-18.156-45.9c0-17.136,5.712-31.824,17.136-44.268c11.424-12.444,25.704-19.584,42.84-21.624
	l10.2-0.816c2.652,0,4.08-1.224,4.08-3.672l1.224-10.812c2.244-22.032,11.424-40.596,27.948-55.284
	c16.524-14.892,35.904-22.236,58.344-22.236c22.236,0,41.82,7.344,58.344,22.236s25.908,33.252,27.948,55.284l1.429,11.628
	c0,2.448,1.224,3.672,3.672,3.672h34.067c17.952,0,33.252,6.528,46.309,19.584c13.056,13.056,19.584,28.356,19.584,46.308
	c0,17.341-6.12,32.437-18.36,45.288c-12.24,12.853-26.928,19.992-44.063,21.42c-2.244,0-3.469,1.225-3.469,3.673v27.336
	c0,2.243,1.225,3.468,3.469,3.468c17.951-0.408,34.067-5.304,48.96-14.688c14.892-9.384,26.52-21.42,34.884-36.72
	c8.567-15.3,12.647-31.824,12.647-49.776c0-14.483-2.855-27.947-8.363-39.983c15.504-19.176,23.052-41.412,23.052-66.912
	c0-14.484-2.856-28.356-8.364-41.616c-5.508-13.26-13.26-24.48-22.848-34.068c-9.384-9.588-20.809-17.136-33.864-22.644
	c-13.26-5.712-27.132-8.364-41.616-8.364c-30.804,0-56.712,11.22-77.724,33.864c-16.116-8.772-34.68-13.056-55.692-13.056
	c-28.764,0-54.264,8.976-76.5,26.724c-22.236,17.748-36.108,40.596-42.228,68.34c-22.848,5.304-41.82,16.932-56.508,35.088
	C39.168,389.88,31.824,410.893,31.824,434.352z M142.188,571.032c0,3.672,1.02,7.344,3.264,10.812
	c2.244,3.672,5.304,5.916,9.18,7.345c3.876,1.428,8.16,1.02,12.444-1.225c4.488-2.244,7.344-5.916,8.976-11.22l5.1-21.42
	c1.428-4.284,1.02-8.364-1.428-12.648c-2.448-4.284-5.916-7.14-10.404-8.567c-5.1-1.225-9.588-0.612-13.668,1.632
	s-6.528,6.12-7.548,10.812l-5.712,20.196C142.392,567.768,142.188,569.196,142.188,571.032z M168.912,474.744
	c0,7.752,4.284,13.056,13.056,16.116c4.488,1.632,8.772,1.224,13.056-1.021c4.284-2.244,6.936-5.916,8.364-10.812l4.896-21.013
	c1.428-4.283,1.02-8.363-1.428-12.647c-2.244-4.284-5.712-7.141-10.404-8.568c-4.896-1.224-9.588-0.815-13.668,1.632
	c-4.08,2.448-6.528,5.916-7.548,10.608l-6.12,20.808C169.116,471.48,168.912,473.112,168.912,474.744z M193.8,635.7
	c0,3.264,1.224,6.731,3.468,10.2c2.244,3.468,5.712,5.916,9.996,7.344c0.204,0,0.816,0,2.04,0.204
	c1.224,0.204,2.244,0.204,3.06,0.204c2.856,0,5.304-0.408,7.548-1.429c3.876-1.632,6.732-5.508,8.364-11.832l5.508-20.195
	c1.428-4.692,1.02-9.181-1.428-13.261c-2.448-4.079-5.916-6.936-10.404-8.159c-4.692-1.429-9.18-1.021-13.26,1.428
	s-6.936,5.916-8.16,10.404l-5.712,20.808C194.004,633.252,193.8,634.68,193.8,635.7z M203.184,185.472c0,5.1,1.632,9.384,5.1,12.648
	l13.464,13.26c6.936,6.936,14.892,6.936,23.868,0c3.264-3.468,4.896-7.752,4.896-12.444s-1.632-8.772-4.896-12.444l-12.852-13.464
	c-3.264-3.264-7.344-4.896-12.24-4.896c-4.692,0-8.772,1.632-12.24,5.1C204.816,176.496,203.184,180.576,203.184,185.472z
	 M221.34,537.984c0,3.468,1.02,6.936,3.264,10.403c2.244,3.469,5.304,5.712,9.588,7.141c4.692,1.428,8.976,1.02,13.056-1.021
	c3.876-2.04,6.732-5.916,8.16-11.424l4.896-20.604c1.428-4.692,1.02-9.181-1.224-13.261s-5.712-6.936-10.2-8.363
	c-5.1-1.429-9.792-0.816-13.872,1.632c-4.08,2.447-6.732,6.12-7.548,10.812l-5.712,21.013
	C221.34,534.924,221.34,536.148,221.34,537.984z M278.052,573.072c0.408,7.752,4.692,13.26,12.852,16.932l5.1,0.816
	c3.264,0,6.528-1.021,9.588-3.265c3.061-2.243,5.305-5.508,6.528-10.199l5.916-20.604c1.224-4.896,0.612-9.384-1.836-13.464
	s-6.12-6.732-10.812-7.548c-4.284-1.428-8.364-1.021-12.647,1.428c-4.284,2.448-6.936,5.916-8.364,10.404l-5.508,20.808
	c-0.204,0.408-0.204,1.021-0.408,1.632c-0.204,0.612-0.204,1.225-0.408,1.632C277.848,572.052,278.052,572.664,278.052,573.072z
	 M306.612,475.968c0,3.265,1.02,6.528,3.06,9.792c2.04,3.265,5.1,5.508,9.18,6.528l5.101,0.612c3.876,0,7.548-1.225,10.607-3.673
	c3.061-2.447,4.896-5.712,5.713-9.588l5.508-20.195c1.428-4.896,1.02-9.181-1.429-13.261c-2.243-4.08-5.712-6.731-10.403-7.955
	c-4.692-1.429-9.181-1.021-13.057,1.224c-4.079,2.244-6.731,5.712-7.956,10.2l-6.119,21.624
	C306.816,472.908,306.612,474.54,306.612,475.968z M313.344,274.824c13.464-13.056,29.784-19.584,48.96-19.584
	c19.992,0,37.128,7.14,51.204,21.216s21.216,31.212,21.216,51.204c0,11.424-3.264,23.46-9.588,35.904
	c-19.584-19.584-43.044-29.172-70.788-29.172h-6.936C342.108,311.136,330.684,291.348,313.344,274.824z M344.76,168.132
	c0,5.1,1.632,9.18,4.896,12.444c3.264,3.264,7.344,4.896,12.443,4.896c5.101,0,9.181-1.632,12.444-4.896
	c3.264-3.264,4.896-7.344,4.896-12.444v-41.208c0-5.1-1.633-9.384-4.896-12.648c-3.264-3.264-7.344-4.896-12.444-4.896
	c-5.1,0-9.18,1.632-12.443,4.896c-3.265,3.264-4.896,7.548-4.896,12.648V168.132z M457.98,214.848c0,5.1,1.632,9.18,4.691,12.444
	c4.284,3.468,8.364,5.1,12.648,5.1c3.876,0,7.752-1.632,12.036-5.1l29.172-29.172c3.264-3.672,4.896-7.956,4.896-12.852
	s-1.632-8.976-4.896-12.24c-3.265-3.264-7.345-4.896-12.036-4.896c-4.692,0-8.772,1.632-12.444,4.896L462.672,202.2
	C459.612,205.872,457.98,209.952,457.98,214.848z M474.096,456.18c0,4.692,1.836,8.977,5.305,12.853l12.647,13.056
	c4.284,4.284,8.364,6.324,12.648,6.324c3.876,0,7.956-2.04,11.832-6.324c3.672-3.672,5.508-7.956,5.304-12.444
	c-0.204-4.691-1.836-8.771-5.304-12.239l-13.261-13.464c-3.264-3.265-7.14-4.896-11.628-4.896c-4.896,0-8.976,1.632-12.443,5.1
	C475.932,447.408,474.096,451.488,474.096,456.18z M504.084,327.456c0,4.488,1.632,8.568,4.896,11.832
	c3.264,3.264,7.344,4.896,11.831,4.896h41.616c5.305,0,9.588-1.632,12.853-4.692c3.264-3.264,4.896-7.14,4.896-12.036
	c0-5.1-1.632-9.384-5.1-12.648s-7.548-4.896-12.648-4.896h-41.616c-4.691,0-8.771,1.632-12.035,5.1
	C505.716,318.48,504.084,322.764,504.084,327.456z"/>
</svg>
