<?xml version="1.0" encoding="utf-8"?>
<!-- Generator: Adobe Illustrator 16.0.0, SVG Export Plug-In . SVG Version: 6.00 Build 0)  -->
<!DOCTYPE svg PUBLIC "-//W3C//DTD SVG 1.1//EN" "http://www.w3.org/Graphics/SVG/1.1/DTD/svg11.dtd">
<svg version="1.1" id="Layer_1" xmlns="http://www.w3.org/2000/svg" xmlns:xlink="http://www.w3.org/1999/xlink" x="0px" y="0px"
	 width="612px" height="792px" viewBox="0 0 612 792" enable-background="new 0 0 612 792" xml:space="preserve">
<path d="M83.028,434.964c0,27.132,9.384,50.592,28.356,69.972c18.972,19.381,42.024,29.988,69.36,31.213
	c2.244,0,3.468-1.225,3.468-3.469v-27.947c0-2.448-1.224-3.673-3.468-3.673c-17.748-1.428-32.64-8.363-44.676-21.216
	c-12.036-12.647-18.156-27.744-18.156-45.084c0-16.932,5.712-31.416,17.136-44.064c11.424-12.648,25.704-19.788,42.84-21.828
	l10.812-1.428c2.652,0,4.08-1.224,4.08-3.468l1.428-10.608c2.244-22.032,11.424-40.596,27.948-55.284
	c16.524-14.892,35.904-22.236,58.14-22.236c22.236,0,41.616,7.344,58.14,22.236c16.524,14.688,26.112,33.252,28.356,55.488
	l1.632,11.832c0,2.448,1.225,3.672,3.672,3.672h32.845c18.359,0,34.067,6.528,47.327,19.38
	c13.057,12.853,19.788,28.356,19.788,46.512c0,17.34-6.12,32.437-18.155,45.084c-12.036,12.648-27.133,19.788-44.677,21.216
	c-2.651,0-4.08,1.225-4.08,3.673v27.947c0,2.244,1.429,3.469,4.08,3.469c27.133-0.816,50.185-11.221,68.952-30.805
	c18.769-19.584,28.152-43.044,28.152-70.38c0-17.748-4.488-34.271-13.26-49.572c16.523-14.892,27.336-32.64,32.231-53.448v-2.652
	l3.876-16.116l-15.504-4.284c-16.523-4.896-29.376-14.28-38.556-27.54c-9.181-13.464-13.668-27.336-13.668-41.412
	c0-5.304,0.611-10.608,1.632-15.912l4.08-16.32l-17.34-5.1l-3.061-0.816c-9.588-1.836-17.952-2.856-25.5-2.856
	c-7.752,0-15.504,0.816-23.256,2.652c-7.956,1.836-16.116,4.488-24.479,8.364c-8.568,3.876-16.729,9.18-24.48,16.32
	s-14.688,15.504-20.4,25.092c-15.096-6.732-31.211-9.996-48.144-9.996c-28.764,0-54.264,8.976-76.5,26.724
	s-36.108,40.596-42.228,68.544c-22.848,5.304-41.82,16.932-56.508,35.088C90.372,390.492,83.028,411.504,83.028,434.964z
	 M193.188,573.072c0,3.06,1.02,6.12,3.06,9.18c2.04,3.061,5.1,5.304,9.18,6.732c4.488,1.428,8.772,1.224,13.056-1.021
	c4.284-2.244,6.936-5.712,8.364-10.404l5.712-21.624c1.428-4.283,1.02-8.363-1.428-12.647c-2.448-4.284-5.916-6.937-10.404-8.364
	c-4.692-1.224-9.18-0.611-13.26,1.632c-4.08,2.244-6.936,6.12-8.568,10.812l-4.692,20.196
	C193.596,570.828,193.188,572.664,193.188,573.072z M219.708,476.58c0,2.244,0.612,4.692,2.04,7.344
	c1.428,3.468,5.1,6.12,10.812,7.752c4.896,1.225,9.384,0.816,13.464-1.224c3.876-2.04,6.732-5.712,8.16-10.608l5.712-21.012
	c1.428-4.692,1.02-9.18-1.428-13.056c-2.448-4.08-5.916-6.732-10.404-7.956c-4.896-1.225-9.588-0.816-13.668,1.428
	s-6.732,5.712-8.16,10.608l-5.508,20.604C220.116,473.112,219.708,475.152,219.708,476.58z M245.208,636.72
	c0,3.468,1.02,6.732,3.06,9.996c2.04,3.265,5.1,5.508,9.18,6.732c2.244,0.611,3.672,1.02,4.692,1.02c1.836,0,4.284-0.612,7.752-2.04
	c4.08-1.632,6.936-5.508,8.772-11.22l6.12-21.42c1.428-4.284,1.02-8.568-1.428-12.853c-2.448-4.283-5.916-6.936-10.404-8.363
	c-4.896-1.225-9.588-0.816-13.668,1.632c-4.08,2.448-6.936,5.916-8.364,10.812l-5.1,20.604
	C245.412,633.252,245.208,635.088,245.208,636.72z M272.34,539.412c0,3.06,1.02,6.12,3.06,9.18c2.04,3.061,5.1,5.305,9.384,6.732
	c4.488,1.428,8.976,1.02,13.056-1.225c4.08-2.243,6.732-5.712,8.16-10.607l5.508-21.216c1.428-4.284,1.021-8.568-1.224-12.648
	s-5.508-6.936-9.996-8.364c-4.896-1.224-9.588-0.611-13.872,1.633c-4.284,2.243-7.14,6.119-8.568,10.812l-4.896,20.4L272.34,539.412
	z M329.664,575.316c0,7.752,4.284,12.647,13.056,15.3c1.836,0.408,3.468,0.612,4.896,0.612c3.06,0,5.508-0.408,7.548-1.429
	c4.284-1.632,7.344-5.508,8.976-11.628l5.509-20.808c1.224-5.101,0.815-9.588-1.633-13.668c-2.447-4.08-5.916-6.528-10.812-7.548
	c-4.692-1.429-9.18-1.021-13.056,1.428s-6.732,5.916-8.16,10.404l-5.508,21.216c0,0.408-0.204,1.428-0.408,3.06
	C329.664,573.684,329.664,574.704,329.664,575.316z M358.02,477.192c0,3.264,1.021,6.323,3.061,9.384
	c2.04,3.06,5.304,5.304,9.384,6.527c2.856,0.612,4.488,1.021,4.692,1.021c1.836,0,4.283-0.612,7.752-2.04
	c4.283-1.632,7.14-5.508,8.976-11.22l5.712-21.216c1.225-4.488,0.612-8.772-1.632-12.853s-6.12-6.731-10.812-8.16
	c-4.488-1.428-8.772-1.02-12.853,1.429c-4.08,2.447-6.731,5.916-8.16,10.607l-5.304,21.624
	C358.224,474.132,358.02,475.968,358.02,477.192z M358.632,269.724c6.528-11.424,15.504-20.4,27.132-26.724
	s23.868-9.588,36.924-9.588h4.284c-0.204,1.836-0.204,4.284-0.204,7.752c0,19.38,5.305,37.74,15.912,55.284
	c10.608,17.544,25.5,30.804,44.269,39.984c-4.488,8.772-9.792,16.32-15.912,22.44c-18.973-16.524-41.208-24.684-66.3-24.684h-6.528
	C393.108,309.912,380.052,288.492,358.632,269.724z"/>
</svg>
