<?xml version="1.0" encoding="utf-8"?>
<!-- Generator: Adobe Illustrator 16.0.0, SVG Export Plug-In . SVG Version: 6.00 Build 0)  -->
<!DOCTYPE svg PUBLIC "-//W3C//DTD SVG 1.1//EN" "http://www.w3.org/Graphics/SVG/1.1/DTD/svg11.dtd">
<svg version="1.1" id="Layer_1" xmlns="http://www.w3.org/2000/svg" xmlns:xlink="http://www.w3.org/1999/xlink" x="0px" y="0px"
	 width="612px" height="792px" viewBox="0 0 612 792" enable-background="new 0 0 612 792" xml:space="preserve">
<path d="M94.452,434.964c0,22.645,6.732,42.84,20.196,60.588s30.804,29.988,52.224,36.517l-13.26,34.271
	c-0.612,2.856,0.408,4.488,2.856,4.488h43.452l-21.216,77.111h5.712l80.988-106.487c0.816-0.816,0.816-1.836,0.408-2.856
	c-0.408-1.02-1.428-1.428-2.856-1.428h-44.472l50.592-94.656c1.224-2.855,0.408-4.283-2.856-4.283h-59.976
	c-1.836,0-3.468,1.02-4.488,2.855l-22.236,58.548c-14.484-3.672-26.52-11.628-36.108-23.664s-14.28-25.704-14.28-41.004
	c0-16.932,5.712-31.62,17.136-44.064s25.704-19.584,42.84-21.624l10.608-1.428c2.652,0,4.08-1.224,4.08-3.468l1.428-10.608
	c2.04-22.032,11.22-40.596,27.744-55.488c16.524-14.892,35.904-22.44,58.14-22.44s41.616,7.548,58.14,22.44
	c16.728,14.892,26.112,33.456,28.56,55.488l1.225,11.832c0,2.448,1.224,3.672,3.876,3.672h32.844
	c18.564,0,34.272,6.528,47.328,19.38c13.056,12.852,19.584,28.355,19.584,46.512c0,17.34-6.12,32.436-18.156,45.084
	s-26.928,19.584-44.676,21.012c-2.652,0-4.08,1.225-4.08,3.876v27.948c0,2.244,1.428,3.468,4.08,3.468
	c13.26-0.407,25.908-3.468,37.944-8.976s22.439-12.852,31.008-21.828c8.567-8.976,15.504-19.584,20.604-32.028
	c5.101-12.239,7.752-25.092,7.752-38.352c0-18.36-4.487-35.292-13.668-50.796c-9.18-15.504-21.42-27.744-36.924-36.72
	s-32.436-13.464-50.592-13.464h-6.528c-6.731-27.132-21.012-49.368-43.044-66.504c-22.032-17.136-46.92-25.908-75.072-25.908
	c-28.764,0-54.468,8.976-76.704,26.724c-22.236,17.748-36.516,40.596-42.84,68.544c-22.44,5.304-41.004,16.932-55.692,35.292
	S94.452,411.504,94.452,434.964z M260.916,636.108c0,3.264,1.02,6.323,3.06,9.384c2.04,3.06,5.304,5.304,9.384,6.527
	c2.856,0.612,4.488,1.021,5.1,1.021c1.836,0,4.284-0.612,7.752-2.04c4.284-1.836,7.14-5.508,8.568-10.608l5.712-21.42
	c1.224-4.487,0.815-8.771-1.632-12.852c-2.448-4.08-5.917-6.732-10.812-8.16c-4.488-1.224-8.772-0.816-12.852,1.632
	c-4.08,2.448-6.936,5.916-8.364,10.812l-5.508,20.399C261.12,634.271,260.916,636.108,260.916,636.108z M288.252,538.8
	c0,2.856,1.02,5.916,3.06,8.977c2.04,3.06,5.1,5.304,9.18,6.731c4.488,1.428,8.976,1.225,13.056-1.02s6.732-5.712,8.16-10.608
	l6.12-21.216c1.224-4.488,0.612-8.772-1.632-12.852c-2.448-4.08-6.12-6.937-10.812-8.364c-4.691-1.225-8.976-0.816-13.26,1.632
	s-6.936,5.916-8.364,10.608l-4.896,20.604C288.456,536.76,288.252,538.596,288.252,538.8z M345.78,572.46
	c0,3.468,1.02,6.937,3.264,10.404s5.508,5.712,9.588,7.14c0.408,0,1.225,0.204,2.448,0.408c1.02,0.204,1.836,0.408,2.448,0.408
	c2.651,0,5.304-0.408,7.752-1.632c3.876-1.429,6.731-5.305,8.363-11.629l5.101-20.604c1.428-4.692,1.02-9.18-1.225-13.464
	c-2.243-4.284-5.712-7.141-10.199-8.568c-5.101-1.224-9.792-0.611-13.872,1.632c-4.08,2.448-6.732,6.12-7.548,10.812l-5.509,21.012
	C345.984,569.604,345.78,571.032,345.78,572.46z M373.524,474.744c-0.204,3.264,0.815,6.324,3.06,9.588s5.508,5.712,9.996,7.752
	c1.632,0.816,3.264,1.224,5.304,1.224c2.244,0,4.488-0.611,6.937-1.632c4.283-2.04,7.14-5.916,8.976-11.628l5.916-21.012
	c0.408-2.652,0.612-4.08,0.612-4.488c0-3.468-1.021-6.731-3.265-9.996c-2.243-3.264-5.508-5.508-9.995-6.731
	c-0.408,0-1.225-0.204-2.244-0.408c-1.225-0.612-2.04-0.612-2.652-0.612c-3.468,0-6.732,1.021-9.996,3.061s-5.508,5.304-6.731,9.792
	l-5.509,20.604C373.728,471.888,373.524,473.316,373.524,474.744z"/>
</svg>
