<?xml version="1.0" encoding="utf-8"?>
<!-- Generator: Adobe Illustrator 16.0.0, SVG Export Plug-In . SVG Version: 6.00 Build 0)  -->
<!DOCTYPE svg PUBLIC "-//W3C//DTD SVG 1.1//EN" "http://www.w3.org/Graphics/SVG/1.1/DTD/svg11.dtd">
<svg version="1.1" id="Layer_1" xmlns="http://www.w3.org/2000/svg" xmlns:xlink="http://www.w3.org/1999/xlink" x="0px" y="0px"
	 width="612px" height="792px" viewBox="0 0 612 792" enable-background="new 0 0 612 792" xml:space="preserve">
<path d="M94.656,435.78c0-23.664,7.14-44.472,21.624-62.832c14.484-18.36,33.048-30.192,55.896-35.904
	c6.324-27.744,20.604-50.592,42.84-68.544c22.236-17.952,47.736-26.724,76.5-26.724c28.152,0,53.04,8.772,75.072,26.112
	c22.032,17.34,36.312,39.78,42.84,67.116h6.528c18.156,0,35.088,4.488,50.592,13.464c15.504,8.976,27.948,21.216,36.924,36.72
	c8.977,15.503,13.668,32.436,13.668,50.592c0,26.928-9.384,50.388-28.355,69.768c-18.769,19.584-41.82,29.784-68.952,30.601
	c-2.652,0-4.08-1.225-4.08-3.469v-27.132c0-2.448,1.428-3.672,4.08-3.672c17.34-0.816,32.231-7.752,44.472-20.808
	c12.24-13.057,18.36-28.152,18.36-45.492c0-18.156-6.528-33.66-19.788-46.92c-13.26-13.26-28.968-19.788-47.328-19.788h-32.844
	c-2.448,0-3.672-1.224-3.672-3.468l-1.632-11.832c-2.244-22.032-11.832-40.596-28.356-55.488
	c-16.728-14.892-35.904-22.44-58.14-22.44c-22.44,0-41.82,7.548-58.344,22.644c-16.524,15.096-25.908,33.66-27.948,56.1l-1.224,10.2
	c0,2.448-1.428,3.876-4.08,3.876l-10.812,1.428c-16.932,1.428-31.212,8.364-42.84,21.216c-11.628,12.852-17.34,27.541-17.34,44.676
	c0,17.34,6.12,32.436,18.36,45.491c12.24,13.057,27.132,19.788,44.472,20.809c2.244,0,3.468,1.224,3.468,3.672v27.132
	c0,2.244-1.224,3.468-3.468,3.468c-27.336-0.815-50.388-11.016-69.36-30.6C104.04,486.168,94.656,462.708,94.656,435.78z
	 M224.4,518.808c0-4.487,1.632-8.567,4.896-11.832c3.264-3.264,7.14-4.896,12.036-4.896c4.692,0,8.772,1.632,12.036,4.896
	c3.264,3.265,4.896,7.345,4.896,11.832c0,4.896-1.632,8.977-4.896,12.24c-3.264,3.468-7.14,5.101-12.036,5.101
	c-4.692,0-8.772-1.633-12.036-5.101C226.032,527.784,224.4,523.704,224.4,518.808z M224.4,592.86c0-4.896,1.632-8.977,4.896-12.24
	c3.264-3.061,7.14-4.692,11.832-4.692s8.772,1.632,12.036,4.692c3.264,3.264,4.896,7.14,4.896,12.036
	c0,4.896-1.632,8.771-4.896,12.036c-3.264,3.264-7.14,4.691-12.036,4.691c-4.692,0-8.772-1.632-12.036-4.691
	C226.032,601.632,224.4,597.552,224.4,592.86z M289.476,558.18c0-4.691,1.632-8.976,5.1-12.647c3.264-3.265,7.14-4.896,11.628-4.896
	c4.691,0,8.771,1.836,12.24,5.305c3.468,3.468,5.304,7.548,5.304,12.239c0,4.692-1.632,8.772-5.1,12.24
	c-3.469,3.468-7.549,5.1-12.444,5.1c-4.692,0-8.568-1.632-11.832-5.1C291.108,566.952,289.476,562.872,289.476,558.18z
	 M289.476,484.332c0-4.692,1.632-8.772,5.1-12.24c3.672-3.264,7.548-4.896,11.628-4.896c4.896,0,8.976,1.632,12.444,5.1
	c3.468,3.468,5.1,7.344,5.1,12.24c0,4.691-1.632,8.771-5.1,12.036c-3.469,3.264-7.549,4.896-12.444,4.896
	c-4.692,0-8.568-1.632-11.832-4.896C291.108,493.104,289.476,489.024,289.476,484.332z M289.476,632.844
	c0-4.691,1.632-8.771,5.1-12.443c3.264-3.265,7.14-4.896,11.628-4.896c4.896,0,8.976,1.632,12.444,5.1
	c3.468,3.469,5.1,7.549,5.1,12.24c0,4.692-1.632,8.772-5.1,12.036c-3.469,3.264-7.549,4.896-12.444,4.896
	c-4.692,0-8.568-1.633-11.832-4.896C291.108,641.412,289.476,637.536,289.476,632.844z M355.164,518.808
	c0-4.487,1.632-8.363,5.1-11.832c3.469-3.468,7.549-5.1,12.24-5.1c4.692,0,8.772,1.632,12.036,4.896
	c3.264,3.264,4.896,7.344,4.896,11.831c0,4.896-1.632,8.977-4.896,12.24c-3.264,3.469-7.14,5.101-12.036,5.101
	c-4.896,0-8.976-1.632-12.24-5.101C357,527.58,355.164,523.5,355.164,518.808z M355.164,592.86c0-4.488,1.632-8.568,5.1-12.24
	c3.265-3.061,7.345-4.692,12.24-4.692c4.896,0,8.772,1.632,12.036,4.692c3.264,3.06,4.692,7.14,4.692,12.036
	c0,4.896-1.633,8.771-4.692,12.036c-3.264,3.264-7.14,4.691-12.036,4.691c-4.896,0-8.976-1.632-12.24-4.896
	C357,601.428,355.164,597.552,355.164,592.86z"/>
</svg>
