<?xml version="1.0" encoding="utf-8"?>
<!-- Generator: Adobe Illustrator 16.0.0, SVG Export Plug-In . SVG Version: 6.00 Build 0)  -->
<!DOCTYPE svg PUBLIC "-//W3C//DTD SVG 1.1//EN" "http://www.w3.org/Graphics/SVG/1.1/DTD/svg11.dtd">
<svg version="1.1" id="Layer_1" xmlns="http://www.w3.org/2000/svg" xmlns:xlink="http://www.w3.org/1999/xlink" x="0px" y="0px"
	 width="612px" height="792px" viewBox="0 0 612 792" enable-background="new 0 0 612 792" xml:space="preserve">
<path d="M94.86,406.2c0-4.488,1.632-8.364,4.692-11.424c3.264-3.06,7.14-4.488,11.628-4.488h246.432
	c4.487,0,8.16,1.428,11.016,4.488c2.856,3.06,4.488,6.936,4.488,11.628c0,4.488-1.428,8.16-4.488,11.016
	c-2.855,2.855-6.528,4.488-11.016,4.488H111.18c-4.488,0-8.568-1.428-11.628-4.488C96.288,414.359,94.86,410.688,94.86,406.2z
	 M144.024,347.04c0-4.488,1.632-8.16,4.692-11.22s6.936-4.692,11.424-4.692h246.636c4.283,0,7.956,1.632,11.016,4.692
	s4.488,6.732,4.488,11.22c0,4.488-1.429,8.16-4.488,11.424c-3.06,3.06-6.732,4.692-11.016,4.692H160.344
	c-4.488,0-8.364-1.632-11.424-4.692S144.024,351.528,144.024,347.04z M177.072,464.136c0-4.284,1.632-7.956,4.896-11.016
	c2.856-2.856,6.528-4.488,11.016-4.488h246.84c4.488,0,8.364,1.428,11.424,4.488c3.06,2.855,4.488,6.528,4.488,11.016
	c0,4.488-1.633,8.364-4.692,11.424c-3.06,3.061-6.936,4.692-11.424,4.692H192.984c-4.488,0-8.16-1.632-11.424-4.692
	C178.296,472.5,177.072,468.624,177.072,464.136z M392.904,406.2c0-4.692,1.428-8.568,4.487-11.628
	c3.061-3.06,6.937-4.488,11.628-4.488h92.208c4.692,0,8.568,1.428,11.628,4.488c3.061,3.06,4.488,6.936,4.488,11.424
	s-1.428,8.16-4.488,11.016c-3.06,2.856-6.936,4.488-11.424,4.488h-92.208c-4.691,0-8.567-1.428-11.628-4.488
	C394.332,414.359,392.904,410.688,392.904,406.2z"/>
</svg>
